<?xml version="1.0" standalone="no"?>
<!DOCTYPE svg PUBLIC "-//W3C//DTD SVG 20010904//EN"
 "http://www.w3.org/TR/2001/REC-SVG-20010904/DTD/svg10.dtd">
<svg version="1.0" xmlns="http://www.w3.org/2000/svg"
 width="611.000000pt" height="611.000000pt" viewBox="0 0 611.000000 611.000000"
 preserveAspectRatio="xMidYMid meet">
<metadata>
Created by potrace 1.11, written by Peter Selinger 2001-2013
</metadata>
<g transform="translate(0.000000,611.000000) scale(0.100000,-0.100000)"
fill="#000000" stroke="none">
<path d="M1610 4476 c-794 -794 -1446 -1448 -1447 -1453 -2 -4 264 -275 590
-601 l593 -592 150 -320 149 -320 3 165 c1 91 4 165 6 165 2 0 317 -313 699
-696 438 -437 700 -693 708 -689 6 4 91 88 188 186 97 99 181 179 186 179 12
0 291 280 296 297 6 19 731 745 737 738 8 -7 1492 1476 1492 1491 0 6 -216
225 -481 487 l-481 477 -334 0 -334 0 -2 338 -3 337 -342 3 -343 2 0 338 0
337 -288 288 c-158 158 -289 287 -292 287 -3 0 -655 -650 -1450 -1444z"/>
<path d="M4940 5480 l0 -170 170 0 170 0 0 170 0 170 -170 0 -170 0 0 -170z"/>
<path d="M4079 5408 c-1 -31 -1 -366 0 -400 l1 -28 225 0 225 0 0 225 0 225
-225 0 -225 0 -1 -22z"/>
<path d="M4630 4595 l0 -325 325 0 325 0 0 325 0 325 -325 0 -325 0 0 -325z"/>
</g>
</svg>
